<?xml version="1.0" encoding="UTF-8"?>
<svg xmlns="http://www.w3.org/2000/svg" width="200" height="200" viewBox="0 0 200 200" role="img" aria-label="OAS logo">
  <defs>
    <linearGradient id="gBlue" x1="0" y1="0" x2="1" y2="1">
      <stop offset="0%" stop-color="#1e3a8a"/>
      <stop offset="100%" stop-color="#2563eb"/>
    </linearGradient>
    <linearGradient id="gGreen" x1="0" y1="1" x2="1" y2="0">
      <stop offset="0%" stop-color="#0f766e"/>
      <stop offset="100%" stop-color="#22c55e"/>
    </linearGradient>
    <linearGradient id="gOrange" x1="0" y1="0" x2="1" y2="1">
      <stop offset="0%" stop-color="#ea580c"/>
      <stop offset="100%" stop-color="#f59e0b"/>
    </linearGradient>
    <filter id="shadow" x="-20%" y="-20%" width="140%" height="140%">
      <feDropShadow dx="0" dy="2" stdDeviation="2" flood-color="#000" flood-opacity="0.2" />
    </filter>
  </defs>
  <rect width="200" height="200" rx="24" fill="#ffffff"/>
  <!-- O -->
  <circle cx="60" cy="100" r="34" fill="url(#gBlue)" filter="url(#shadow)"/>
  <circle cx="60" cy="100" r="18" fill="#ffffff"/>
  <!-- A -->
  <path d="M100 140 L120 60 L140 140 Z" fill="url(#gGreen)" filter="url(#shadow)"/>
  <rect x="112" y="100" width="16" height="12" fill="#ffffff"/>
  <!-- S -->
  <path d="M162 76 q20 0 20 20 q0 12 -10 18 q-10 6 -22 6 q-6 0 -10 2 q-4 2 -4 6 q0 10 18 10 q10 0 22 -4 l0 16 q-12 4 -24 4 q-18 0 -28 -7 q-10 -7 -10 -19 q0 -12 10 -18 q10 -6 22 -6 q14 0 14 -8 q0 -4 -3 -6 q-3 -2 -9 -2 q-10 0 -21 4 l0 -16 q12 -4 25 -4z" fill="url(#gOrange)" filter="url(#shadow)"/>
  <text x="100" y="180" font-family="ui-sans-serif, system-ui, Arial, Helvetica, sans-serif" font-weight="700" font-size="18" text-anchor="middle" fill="#334155">OAS</text>
</svg>

